# xmcd
#
# Track frame offsets:
#	150
#	52159
#	89385
#	130345
#	164687
#	212305
#	253881
#	297764
#
# Disc length: 4383 seconds
# Revision: 0
# Processed by: cddbd v1.5.2PL0 Copyright (c) Steve Scherf et al.
# Submitted via: dBpowerAMP V12.0
#
DISCID=78111d08
DTITLE=Larry Crane - Accelerated Learning Teleconference 2006-07-12
DYEAR=2006
DGENRE=Speech
TTITLE0=Accelerated Learning - The Basics
TTITLE1=Questions and Answers pt 1
TTITLE2=Questions and Answers pt 2
TTITLE3=About Showing Up
TTITLE4=Questions and Answers pt 3
TTITLE5=Participant Gains
TTITLE6=Questions and Answers pt 4
TTITLE7=Questions and Answers pt 5
EXTD=
EXTT0=
EXTT1=
EXTT2=
EXTT3=
EXTT4=
EXTT5=
EXTT6=
EXTT7=
PLAYORDER=
